<svg xmlns="http://www.w3.org/2000/svg" xmlns:xlink="http://www.w3.org/1999/xlink" version="1.1" id="Layer_1" x="0px" y="0px" width="100px" height="100px" viewBox="0 0 100 100" enable-background="new 0 0 100 100" xml:space="preserve">
<g>
	<path fill="#000000" d="M49.499,24.915c-13.832,0-25.085,11.253-25.085,25.085s11.253,25.085,25.085,25.085   c13.833,0,25.085-11.253,25.085-25.085S63.331,24.915,49.499,24.915z M49.499,70.085c-11.075,0-20.085-9.01-20.085-20.085   c0-11.075,9.01-20.085,20.085-20.085S69.584,38.925,69.584,50C69.584,61.075,60.573,70.085,49.499,70.085z"/>
	<path fill="#000000" d="M61.332,47.5c-1.381,0-2.5,1.119-2.5,2.5c0,5.146-4.187,9.333-9.333,9.333   c-5.146,0-9.333-4.187-9.333-9.333c0-1.381-1.119-2.5-2.5-2.5s-2.5,1.119-2.5,2.5c0,7.903,6.43,14.333,14.333,14.333   c7.904,0,14.333-6.43,14.333-14.333C63.832,48.619,62.713,47.5,61.332,47.5z"/>
	<path fill="#000000" d="M92.763,50c0-6.49-4.404-11.958-10.376-13.607c1.199-2.104,1.85-4.487,1.851-6.974   c0-3.774-1.47-7.322-4.139-9.99c-2.668-2.669-6.216-4.139-9.99-4.139c-2.487,0-4.87,0.65-6.975,1.85   c-1.649-5.971-7.117-10.375-13.606-10.375S37.571,11.169,35.921,17.14c-2.104-1.2-4.487-1.85-6.975-1.85   c-3.774,0-7.322,1.47-9.99,4.138c-2.669,2.668-4.139,6.217-4.139,9.991c0,2.487,0.65,4.87,1.85,6.974   C10.696,38.043,6.292,43.511,6.292,50s4.403,11.957,10.375,13.606c-1.2,2.104-1.85,4.487-1.85,6.976   c0,3.773,1.47,7.321,4.139,9.989c2.668,2.669,6.216,4.139,9.99,4.14c0,0,0,0,0,0c2.488,0,4.871-0.651,6.975-1.852   c1.65,5.972,7.117,10.375,13.606,10.375s11.957-4.403,13.606-10.374c2.104,1.199,4.487,1.851,6.976,1.851   c3.774,0,7.322-1.471,9.99-4.14c2.669-2.668,4.138-6.216,4.138-9.989c0-2.488-0.65-4.871-1.85-6.975   C88.359,61.957,92.763,56.49,92.763,50z M78.635,59.129c-1.181,0-2.163,0.82-2.426,1.92c-0.595,0.964-0.48,2.241,0.355,3.077   c1.724,1.725,2.673,4.018,2.673,6.456s-0.949,4.73-2.674,6.454c-1.724,1.725-4.016,2.675-6.454,2.675s-4.73-0.95-6.454-2.675   c-0.836-0.836-2.113-0.949-3.077-0.355c-1.101,0.262-1.922,1.245-1.922,2.426c0,5.033-4.095,9.128-9.129,9.128   c-5.033,0-9.128-4.095-9.128-9.128c0-1.182-0.822-2.166-1.924-2.427c-0.964-0.594-2.24-0.479-3.075,0.356   c-1.724,1.725-4.017,2.675-6.455,2.675c-2.438,0-4.729-0.95-6.454-2.675c-1.724-1.725-2.674-4.017-2.674-6.455   c0-2.438,0.95-4.73,2.674-6.455c0.835-0.835,0.95-2.11,0.357-3.074c-0.262-1.102-1.245-1.923-2.427-1.923   c-5.033,0-9.128-4.095-9.128-9.129c0-5.034,4.095-9.129,9.128-9.129c1.181,0,2.165-0.821,2.426-1.923   c0.594-0.963,0.479-2.239-0.356-3.074c-1.724-1.724-2.673-4.017-2.673-6.455s0.95-4.731,2.674-6.455   c1.724-1.725,4.016-2.674,6.454-2.674c2.438,0,4.73,0.949,6.455,2.674c0.834,0.834,2.11,0.949,3.075,0.356   c1.102-0.261,1.924-1.245,1.924-2.427c0-5.033,4.095-9.128,9.128-9.128c5.034,0,9.129,4.095,9.129,9.128   c0,1.181,0.82,2.164,1.921,2.426c0.964,0.595,2.24,0.48,3.076-0.355c1.725-1.724,4.018-2.674,6.455-2.674   c2.438,0,4.73,0.949,6.455,2.674c1.725,1.724,2.674,4.016,2.674,6.454s-0.95,4.731-2.675,6.456   c-0.838,0.838-0.952,2.121-0.351,3.085c0.266,1.096,1.246,1.912,2.423,1.912c5.033,0,9.128,4.095,9.128,9.129   C87.763,55.034,83.668,59.129,78.635,59.129z"/>
	<circle fill="#000000" cx="56.912" cy="41.737" r="2.69"/>
	<circle fill="#000000" cx="42.042" cy="41.694" r="2.69"/>
</g>
</svg>