<svg xmlns="http://www.w3.org/2000/svg" width="0" height="0" style="position:absolute"><symbol id="bike" viewBox="0 0 100 60.214"><path d="M18.054 40.15l6.136-10.84 5.428-23.79.004.003 1.965 2.462-5.053 22.243-6.312 11.147-2.168-1.224zm1.76-22.185c-1.865-.792-4.05-2.646-4.03-5.817-.04-2.895 1.435-4.816 3.068-5.683 1.62-.892 4.108-.983 4.108-.983.256 0 .435.01.51.016l7.773.008.343 2.48H23.33l-.052-.003c0 .002-.092-.013-.318-.013-.603-.005-1.907.106-2.896.67-.973.59-1.753 1.378-1.79 3.508.02 1.498.638 2.298 1.557 2.982.92.66 2.164 1.02 2.988 1.172.55.103.87.12.875.12l-.15 2.485c-.08-.007-1.837-.102-3.728-.942zm7.152.645l1.772-1.75 24.445 27.343 25.476-4.1-17.02-24.65H28.68v-2.487h34.266l20.007 28.976-30.643 4.925L26.966 18.61zm1.715-3.157v.002-.002zM51.56 45.17L64.58 2.482l2.382.73L53.94 45.898l-2.382-.728zM0 41.025c0-10.6 8.592-19.19 19.192-19.192 10.6 0 19.188 8.592 19.19 19.192 0 10.596-8.59 19.187-19.19 19.19C8.592 60.21.002 51.62 0 41.025zm2.49 0c.017 9.22 7.48 16.682 16.702 16.7 9.22-.02 16.683-7.48 16.697-16.7-.017-9.225-7.48-16.686-16.7-16.7-9.223.014-16.685 7.475-16.7 16.7z"/><circle cx="19.192" cy="41.025" r="2.697"/><path d="M61.617 41.025c.002-10.6 8.595-19.19 19.192-19.194 10.596.005 19.186 8.598 19.19 19.196-.004 10.596-8.595 19.187-19.19 19.19-10.6-.004-19.19-8.594-19.194-19.19zm2.49 0c.017 9.223 7.48 16.684 16.702 16.7 9.22-.017 16.684-7.478 16.7-16.7-.017-9.226-7.48-16.688-16.7-16.703-9.225.015-16.687 7.477-16.703 16.703z"/><circle cx="80.81" cy="41.025" r="2.697"/><circle cx="52.751" cy="44.707" r="2.698"/><path d="M49.88 36.7l1.833-.348L54.93 53.26l-1.836.348L49.88 36.7zm-1.47.495v-1.87h4.666v1.87H48.41zm3.112 16.612V51.94h4.666v1.867h-4.666zM59.167 1.14s-1.62.325-1.62 1.295.968 1.188 1.46 1.133c.225-.025 5.823-.163 8.41.485 2.592.647 3.886 1.134 4.695-.16.81-1.296.97-4.046-2.427-3.887-3.4.164-10.518 1.135-10.518 1.135z"/></symbol><symbol id="pen" viewBox="0 0 100 100"><path d="M-192 0H-7v99h-185zM0-36h100v30H0z"/><text transform="translate(66 -19.5)" font-family="'Helvetica'" font-size="2.4">http://thenounproject.com</text><text transform="translate(7.166 -24.5)"><tspan x="0" y="0" font-family="'Helvetica-Bold'" font-size="6.158">The Noun Project</tspan><tspan x="1.12" y="4.8" font-family="'Helvetica-Bold'" font-size="4">Icon Template</tspan></text><text transform="translate(-178.5 10.5)" font-family="'Helvetica-Bold'" font-size="6.158">Reminders</text><path stroke="#fff" stroke-miterlimit="10" d="M8-14.5h10m-197 31h17"/><path d="M-170.802 31.318h8.72v8.642h-8.72zm6.347 10.994h4.747V37.61h-4.747v4.702zm5.19.437h-5.63v-5.58h5.63v5.58zm-6.956 1.31h8.277v-8.2h-8.28v8.202zm8.72.44h-9.164v-9.08h9.163v9.08zm-8.65-.367l-.142-.142 8.28-8.202.14.142z"/><path fill="none" d="M-179 58h35v32.5h-35z"/><text transform="translate(-179 60.157)"><tspan x="0" y="0" font-family="'Helvetica-Bold'" font-size="3">Strokes</tspan><tspan x="0" y="5" font-family="'Helvetica'" font-size="2.4">Try to keep strokes at 4px</tspan><tspan x="0" y="10" font-family="'Helvetica'" font-size="2.4">Minimum stroke weight is 2px</tspan><tspan x="0" y="14.5" font-family="'Helvetica'" font-size="2.4">For thicker strokes use even</tspan><tspan x="0" y="17.5" font-family="'Helvetica'" font-size="2.4">numbers: 6px, 8px etc.</tspan><tspan x="0" y="22" font-family="'Helvetica-Bold'" font-size="2.4">Remember to expand strokes</tspan><tspan x="0" y="25" font-family="'Helvetica-Bold'" font-size="2.4">before saving as an SVG</tspan></text><path fill="none" d="M-136.5 58h35v32.5h-35z"/><text transform="translate(-136.5 60.157)"><tspan x="0" y="0" font-family="'Helvetica-Bold'" font-size="3">Size</tspan><tspan x="0" y="5" font-family="'Helvetica'" font-size="2.4">Cannot be wider or taller than</tspan><tspan x="0" y="8.5" font-family="'Helvetica'" font-size="2.4">100px (artboar size)</tspan><tspan x="0" y="13.5" font-family="'Helvetica'" font-size="2.4">Scale your icon to fill as much of</tspan><tspan x="0" y="16.5" font-family="'Helvetica'" font-size="2.4">the Safe Area as possible (within</tspan><tspan x="0" y="19.5" font-family="'Helvetica'" font-size="2.4">the guides)</tspan></text><path fill="none" d="M-94 58h35v32.5h-35z"/><text transform="translate(-94 60.157)"><tspan x="0" y="0" font-family="'Helvetica-Bold'" font-size="3">Ungroup</tspan><tspan x="0" y="5" font-family="'Helvetica'" font-size="2.4">If your design has more than one</tspan><tspan x="0" y="8" font-family="'Helvetica'" font-size="2.4">shape, make sure to ungroup.</tspan></text><path fill="none" d="M-50 58h35v32.5h-35z"/><text transform="translate(-50 60.157)"><tspan x="0" y="0" font-family="'Helvetica-Bold'" font-size="3">Save as</tspan><tspan x="0" y="5" font-family="'Helvetica'" font-size="2.4">Save as .SVG and make sure</tspan><tspan x="0" y="8" font-family="'Helvetica'" font-size="2.4">“Use Artboards” is checked.</tspan></text><text transform="matrix(1.007 0 0 1 -125.542 30.593)" font-family="'Helvetica'" font-size="2.573">100px</text><text transform="matrix(1.007 0 0 1 -41 39)" font-family="'Helvetica-Bold'" font-size="5.146">.SVG</text><path d="M-126.514 34.815h10.26V45h-10.26zm.037-3.05h.522v2.338h-.522zm9.665 0h.523v2.338h-.52zm-10.188.572h11.233v.572H-127zm43.195 1.507H-73.5V44h-10.305zm6.995-5.137h3.31v3.26h-3.31z"/><path stroke="#fff" stroke-miterlimit="10" d="M-178.5 22.5h30v30h-30zm42 0h30v30h-30zm43 0h30v30h-30zm44 0h30v30h-30z"/><path d="M80.79 19.21c-3.136-3.14-7.252-4.71-11.367-4.71-4.116 0-8.23 1.57-11.37 4.71L19.21 58.052c-3.058 3.055-4.62 7.035-4.702 11.04-.002-.107-.008-.214-.008-.32V85.5h16.73c-.107 0-.212-.007-.316-.008 4.002-.083 7.98-1.647 11.034-4.7l38.844-38.845c6.278-6.278 6.278-16.46 0-22.738zM35.495 74.336c-1.312 1.312-3.06 2.036-4.914 2.036-1.856 0-3.602-.724-4.914-2.036-2.712-2.71-2.712-7.12-.002-9.83L56.02 34.152l9.83 9.83-30.355 30.354zm38.843-38.844l-5.078 5.08-9.833-9.83 5.08-5.08c1.313-1.312 3.06-2.036 4.916-2.036s3.603.724 4.914 2.037c1.314 1.312 2.04 3.06 2.04 4.914 0 1.858-.726 3.602-2.04 4.915z"/></symbol><symbol id="sunflower-face" viewBox="0 0 100 100"><path d="M49.5 24.915c-13.833 0-25.086 11.253-25.086 25.085S35.667 75.085 49.5 75.085 74.583 63.832 74.583 50 63.33 24.915 49.5 24.915zm0 45.17c-11.076 0-20.086-9.01-20.086-20.085 0-11.075 9.01-20.085 20.085-20.085S69.582 38.925 69.582 50c0 11.075-9.01 20.085-20.085 20.085zM61.332 47.5c-1.38 0-2.5 1.12-2.5 2.5 0 5.146-4.187 9.333-9.333 9.333-5.148 0-9.335-4.187-9.335-9.333 0-1.38-1.12-2.5-2.5-2.5s-2.5 1.12-2.5 2.5c0 7.903 6.43 14.333 14.333 14.333 7.903 0 14.332-6.43 14.332-14.333 0-1.38-1.12-2.5-2.5-2.5zm31.43 2.5c0-6.49-4.403-11.958-10.375-13.607 1.2-2.104 1.85-4.487 1.85-6.974 0-3.776-1.47-7.324-4.138-9.99-2.67-2.67-6.218-4.14-9.99-4.14-2.49 0-4.87.65-6.977 1.85-1.65-5.97-7.117-10.376-13.606-10.376S37.57 11.17 35.92 17.14c-2.103-1.2-4.486-1.85-6.974-1.85-3.774 0-7.322 1.47-9.99 4.138-2.67 2.668-4.14 6.217-4.14 9.99 0 2.488.65 4.87 1.85 6.975C10.696 38.043 6.293 43.51 6.293 50s4.403 11.957 10.375 13.606c-1.2 2.104-1.85 4.487-1.85 6.976 0 3.773 1.47 7.32 4.14 9.99 2.667 2.668 6.215 4.138 9.99 4.14 2.487 0 4.87-.652 6.974-1.853 1.65 5.97 7.118 10.373 13.607 10.373S61.483 88.83 63.132 82.86c2.104 1.2 4.487 1.85 6.976 1.85 3.772 0 7.32-1.47 9.99-4.14 2.667-2.667 4.136-6.215 4.136-9.988 0-2.488-.65-4.87-1.85-6.975C88.36 61.957 92.763 56.49 92.763 50zm-14.127 9.13c-1.18 0-2.163.82-2.426 1.92-.597.963-.48 2.24.353 3.076 1.724 1.725 2.673 4.018 2.673 6.456s-.95 4.73-2.674 6.454c-1.724 1.725-4.016 2.675-6.454 2.675s-4.73-.95-6.455-2.673c-.836-.836-2.113-.95-3.077-.355-1.1.263-1.922 1.246-1.922 2.427 0 5.032-4.095 9.127-9.13 9.127-5.032 0-9.127-4.095-9.127-9.128 0-1.183-.823-2.167-1.925-2.428-.964-.594-2.24-.48-3.075.356-1.724 1.725-4.017 2.675-6.455 2.675-2.438 0-4.73-.95-6.454-2.674-1.723-1.726-2.673-4.018-2.673-6.456 0-2.437.95-4.73 2.674-6.454.835-.835.95-2.11.357-3.074-.262-1.102-1.245-1.923-2.427-1.923-5.032 0-9.127-4.096-9.127-9.13 0-5.034 4.095-9.13 9.128-9.13 1.183 0 2.167-.82 2.428-1.922.594-.962.48-2.24-.356-3.073-1.723-1.724-2.672-4.017-2.672-6.455s.95-4.732 2.674-6.456c1.724-1.725 4.016-2.674 6.454-2.674 2.438 0 4.73.95 6.455 2.674.835.834 2.11.95 3.076.356 1.1-.26 1.923-1.245 1.923-2.427 0-5.033 4.095-9.128 9.128-9.128 5.035 0 9.13 4.095 9.13 9.128 0 1.18.82 2.164 1.92 2.426.965.595 2.24.48 3.077-.355 1.725-1.724 4.018-2.674 6.455-2.674 2.437 0 4.73.95 6.454 2.675 1.725 1.724 2.674 4.016 2.674 6.454s-.95 4.73-2.675 6.455c-.838.838-.952 2.12-.35 3.085.265 1.095 1.245 1.91 2.422 1.91 5.033 0 9.128 4.096 9.128 9.13 0 5.034-4.095 9.13-9.128 9.13z"/><circle cx="56.912" cy="41.737" r="2.69"/><circle cx="42.042" cy="41.694" r="2.69"/></symbol><symbol id="wedding" viewBox="0 0 100 100"><circle cx="35.555" cy="9.281" r="6.781"/><circle cx="56.323" cy="13.84" r="6.487"/><path d="M38.302 17.292l-2.167.64c-.022 0-.044.004-.066.007-.12-.155-.28-.25-.456-.25-.188 0-.357.106-.48.28-.05-.024-.103-.038-.16-.038l-2.168-.64c-.21 0-.38.17-.38.38v1.907c0 .21.17.38.38.38l2.167-.606c.062 0 .12-.016.17-.042.123.166.288.268.47.268.17 0 .323-.09.442-.233.026.005.052.008.08.008l2.167.607c.21 0 .382-.17.382-.382v-1.907c0-.21-.172-.38-.383-.38z"/><circle cx="35.555" cy="22.7" r="1.006"/><circle cx="35.555" cy="26.609" r="1.006"/><circle cx="35.555" cy="30.518" r="1.006"/><circle cx="35.555" cy="34.427" r="1.006"/><path d="M56.323 2.833c-6.39 0-10.055 4.012-10.055 11.007h2.08c0-4.072 1.384-8.927 7.975-8.927 6.592 0 7.976 4.854 7.976 8.927h2.077c0-6.995-3.665-11.007-10.055-11.007zm24.114 90L68.033 57.78V22.36H50.455s-.615-3.736-6.51-3.736h-3.778V34s-.035 3.538-4.61 3.538-4.612-3.57-4.612-3.57l-.07-15.343h-6.378s-5.062.364-5.062 4.664v32.175s0 2.185 2.964 2.185 3.274-1.634 3.274-1.634v41.238H37.22s1.483.026 1.483-.884c.806.78 3.368 1.885 5.253 0 .962.65 2.704 2.03 5.07 0 0 0 2.756 2.314 5.07 0 1.275.78 2.34 1.846 5.123.156 1.3.676 3.145 1.716 5.07-.078 1.663.884 2.55 1.846 5.07 0 2.054 1.04 3.354 1.716 5.33-.286 1.61 2.052 6.76 2 5.746-3.33zm-53.69-63.39c-1.244 0-2.252-1.01-2.252-2.254s1.01-2.255 2.253-2.255c1.245 0 2.254 1.01 2.254 2.253 0 1.244-1.01 2.253-2.254 2.253zm50.448 66.45c-.95 0-1.724-.74-1.724-1.65 0-.488.226-.925.577-1.227h.005c0-.496-.655-.897-1.464-.897-.81 0-1.466.4-1.466.895h.01c.354.3.576.738.576 1.227 0 .91-.77 1.65-1.723 1.65-.95 0-1.723-.74-1.723-1.65 0-.49.224-.927.577-1.23h-.008c0-.494-.612-.895-1.365-.895-.754 0-1.365.402-1.365.897h.003c.353.3.575.738.575 1.227 0 .91-.772 1.65-1.724 1.65s-1.724-.74-1.724-1.65c0-.49.225-.926.578-1.23h-.028c-.002-.493-.648-.894-1.446-.894s-1.445.4-1.446.896h-.006c.354.3.578.74.578 1.23 0 .91-.772 1.648-1.724 1.648s-1.724-.738-1.724-1.648c0-.488.224-.925.575-1.227h.01c0-.496-.627-.897-1.4-.897-.772 0-1.4.402-1.4.897h.02c.352.3.574.738.574 1.227 0 .91-.772 1.65-1.723 1.65-.95 0-1.723-.74-1.723-1.65 0-.49.224-.927.577-1.23h-.006c-.002-.494-.66-.895-1.468-.895-.812 0-1.467.4-1.47.896h-.02c.354.3.577.74.577 1.23 0 .91-.77 1.648-1.723 1.648-.952 0-1.724-.737-1.724-1.647 0-.49.224-.927.578-1.23h-.017c0-.494-.57-.895-1.272-.895-.702 0-1.27.4-1.273.896h-.02c.354.3.578.74.578 1.23 0 .91-.77 1.648-1.723 1.648s-1.724-.738-1.724-1.648c0-.488.223-.925.575-1.227h.036c0-.496-.69-.897-1.54-.897s-1.542.402-1.542.897h.008c.353.3.576.738.576 1.227 0 .91-.77 1.65-1.723 1.65s-1.723-.74-1.723-1.65c0-.49.224-.927.578-1.23h-.02c-.002-.494-.616-.895-1.373-.895-.758 0-1.373.4-1.373.896h.01c.35.3.574.738.574 1.227 0 .912-.77 1.65-1.724 1.65-.95 0-1.723-.74-1.723-1.65 0-.488 2.146-8.075 2.146-8.075l-.017-26.23s-.105-1.108.97-1.108 1.057.954 1.057.954l.208 18.88 9.882-32.73h4.715c4.682-.088 2.775-6.086 2.775-6.086l-4.94-15.064c-.276-.71.14-.728.14-.728h14.51c.607 0 .59.38.59.38l-.035 28.78-5.496-14.425 2.358-6.05s.485-.71-.365-1.04c-.85-.33-1.16.295-1.16.295l-2.41 6.883 19.362 54.14s.198.74.198 1.23c0 .91-.772 1.65-1.723 1.65z"/></symbol></svg>