<svg xmlns="http://www.w3.org/2000/svg" xmlns:xlink="http://www.w3.org/1999/xlink" width="0" height="0" style="position:absolute">

    <symbol id="pen" viewBox="0 0 100 100">
        <g><path d="M-192 0H-7v99h-185zM0-36h100v30H0z"/><text transform="translate(66 -19.5)" font-family="'Helvetica'" font-size="2.4">http://thenounproject.com</text><text transform="translate(7.166 -24.5)"><tspan x="0" y="0" font-family="'Helvetica-Bold'" font-size="6.158">The Noun Project</tspan><tspan x="1.12" y="4.8" font-family="'Helvetica-Bold'" font-size="4">Icon Template</tspan></text><text transform="translate(-178.5 10.5)" font-family="'Helvetica-Bold'" font-size="6.158">Reminders</text><path stroke="#fff" stroke-miterlimit="10" d="M8-14.5h10M-179 16.5h17"/><path d="M-170.802 31.318h8.72v8.642h-8.72zM-164.455 42.312h4.747V37.61h-4.747v4.702zm5.19.437h-5.63v-5.58h5.63v5.58zm-6.956 1.312h8.278V35.86h-8.28v8.202zm8.72.438h-9.163v-9.08h9.163v9.08zM-166.15 44.133l-.142-.142 8.28-8.203.14.142z"/><path fill="none" d="M-179 58h35v32.5h-35z"/><text transform="translate(-179 60.157)"><tspan x="0" y="0" font-family="'Helvetica-Bold'" font-size="3">Strokes</tspan><tspan x="0" y="5" font-family="'Helvetica'" font-size="2.4">Try to keep strokes at 4px</tspan><tspan x="0" y="10" font-family="'Helvetica'" font-size="2.4">Minimum stroke weight is 2px</tspan><tspan x="0" y="14.5" font-family="'Helvetica'" font-size="2.4">For thicker strokes use even</tspan><tspan x="0" y="17.5" font-family="'Helvetica'" font-size="2.4">numbers: 6px, 8px etc.</tspan><tspan x="0" y="22" font-family="'Helvetica-Bold'" font-size="2.4">Remember to expand strokes</tspan><tspan x="0" y="25" font-family="'Helvetica-Bold'" font-size="2.4">before saving as an SVG</tspan></text><path fill="none" d="M-136.5 58h35v32.5h-35z"/><text transform="translate(-136.5 60.157)"><tspan x="0" y="0" font-family="'Helvetica-Bold'" font-size="3">Size</tspan><tspan x="0" y="5" font-family="'Helvetica'" font-size="2.4">Cannot be wider or taller than</tspan><tspan x="0" y="8.5" font-family="'Helvetica'" font-size="2.4">100px (artboar size)</tspan><tspan x="0" y="13.5" font-family="'Helvetica'" font-size="2.4">Scale your icon to fill as much of</tspan><tspan x="0" y="16.5" font-family="'Helvetica'" font-size="2.4">the Safe Area as possible (within</tspan><tspan x="0" y="19.5" font-family="'Helvetica'" font-size="2.4">the guides)</tspan></text><path fill="none" d="M-94 58h35v32.5h-35z"/><text transform="translate(-94 60.157)"><tspan x="0" y="0" font-family="'Helvetica-Bold'" font-size="3">Ungroup</tspan><tspan x="0" y="5" font-family="'Helvetica'" font-size="2.4">If your design has more than one</tspan><tspan x="0" y="8" font-family="'Helvetica'" font-size="2.4">shape, make sure to ungroup.</tspan></text><path fill="none" d="M-50 58h35v32.5h-35z"/><text transform="translate(-50 60.157)"><tspan x="0" y="0" font-family="'Helvetica-Bold'" font-size="3">Save as</tspan><tspan x="0" y="5" font-family="'Helvetica'" font-size="2.4">Save as .SVG and make sure</tspan><tspan x="0" y="8" font-family="'Helvetica'" font-size="2.4">“Use Artboards” is checked.</tspan></text><text transform="matrix(1.007 0 0 1 -125.542 30.593)" font-family="'Helvetica'" font-size="2.573">100px</text><text transform="matrix(1.007 0 0 1 -41 39)" font-family="'Helvetica-Bold'" font-size="5.146">.SVG</text><path d="M-126.514 34.815h10.26V45h-10.26zM-126.477 31.766h.522v2.337h-.522zM-116.812 31.766h.523v2.337h-.522zM-127 32.337h11.233v.572H-127zM-83.805 33.844H-73.5V44h-10.305zM-76.81 28.707h3.31v3.26h-3.31z"/><path stroke="#fff" stroke-miterlimit="10" d="M-178.5 22.5h30v30h-30zM-136.5 22.5h30v30h-30zM-93.5 22.5h30v30h-30zM-49.5 22.5h30v30h-30z"/></g><path d="M80.79 19.21c-3.136-3.14-7.252-4.71-11.367-4.71-4.116 0-8.23 1.57-11.37 4.71L19.21 58.052c-3.058 3.055-4.62 7.035-4.702 11.04-.002-.107-.008-.214-.008-.32V85.5h16.73c-.107 0-.212-.007-.316-.008 4.002-.083 7.98-1.647 11.034-4.7l38.844-38.845c6.278-6.278 6.278-16.46 0-22.738zM35.495 74.336c-1.312 1.312-3.06 2.036-4.914 2.036-1.857 0-3.603-.724-4.915-2.036-2.712-2.71-2.712-7.12-.002-9.83l30.355-30.354 9.832 9.83-30.356 30.354zm38.843-38.844l-5.078 5.08-9.833-9.83 5.08-5.08c1.313-1.312 3.06-2.036 4.916-2.036s3.603.724 4.914 2.037c1.314 1.312 2.04 3.06 2.04 4.914 0 1.858-.726 3.602-2.04 4.915z"/>
    </symbol>

    <symbol id="sunflower-face" viewBox="0 0 100 100">
        <path d="M49.5 24.915c-13.833 0-25.086 11.253-25.086 25.085S35.667 75.085 49.5 75.085 74.583 63.832 74.583 50 63.33 24.915 49.5 24.915zm0 45.17c-11.076 0-20.086-9.01-20.086-20.085 0-11.075 9.01-20.085 20.085-20.085S69.583 38.925 69.583 50c0 11.075-9.01 20.085-20.085 20.085zM61.332 47.5c-1.38 0-2.5 1.12-2.5 2.5 0 5.146-4.187 9.333-9.333 9.333-5.147 0-9.334-4.187-9.334-9.333 0-1.38-1.12-2.5-2.5-2.5s-2.5 1.12-2.5 2.5c0 7.903 6.43 14.333 14.333 14.333 7.903 0 14.332-6.43 14.332-14.333 0-1.38-1.12-2.5-2.5-2.5zM92.763 50c0-6.49-4.404-11.958-10.376-13.607 1.2-2.104 1.85-4.487 1.85-6.974 0-3.775-1.47-7.323-4.138-9.99-2.67-2.67-6.217-4.14-9.99-4.14-2.488 0-4.87.65-6.976 1.85-1.65-5.97-7.117-10.375-13.606-10.375S37.57 11.17 35.92 17.14c-2.103-1.2-4.486-1.85-6.974-1.85-3.774 0-7.322 1.47-9.99 4.138-2.67 2.668-4.14 6.217-4.14 9.99 0 2.488.65 4.87 1.85 6.975C10.697 38.043 6.293 43.51 6.293 50s4.403 11.957 10.375 13.606c-1.2 2.104-1.85 4.487-1.85 6.976 0 3.773 1.47 7.32 4.14 9.99 2.667 2.668 6.215 4.138 9.99 4.14 2.487 0 4.87-.652 6.974-1.853 1.65 5.97 7.118 10.374 13.607 10.374S61.484 88.83 63.133 82.86c2.104 1.2 4.487 1.85 6.976 1.85 3.773 0 7.32-1.47 9.99-4.14 2.668-2.667 4.137-6.215 4.137-9.988 0-2.488-.65-4.87-1.85-6.975C88.36 61.957 92.763 56.49 92.763 50zm-14.128 9.13c-1.18 0-2.163.82-2.426 1.92-.596.963-.48 2.24.354 3.076 1.724 1.725 2.673 4.018 2.673 6.456s-.95 4.73-2.674 6.454c-1.724 1.725-4.016 2.675-6.454 2.675s-4.73-.95-6.455-2.674c-.836-.836-2.113-.95-3.077-.355-1.1.263-1.922 1.246-1.922 2.427 0 5.033-4.095 9.128-9.13 9.128-5.032 0-9.127-4.095-9.127-9.128 0-1.182-.823-2.166-1.925-2.427-.964-.594-2.24-.48-3.075.356-1.724 1.725-4.017 2.675-6.455 2.675-2.438 0-4.73-.95-6.454-2.674-1.723-1.725-2.673-4.017-2.673-6.455 0-2.437.95-4.73 2.674-6.454.836-.835.95-2.11.358-3.074-.262-1.102-1.245-1.923-2.427-1.923-5.032 0-9.127-4.096-9.127-9.13 0-5.034 4.095-9.13 9.128-9.13 1.182 0 2.166-.82 2.427-1.922.594-.963.48-2.24-.356-3.074-1.723-1.724-2.672-4.017-2.672-6.455s.95-4.732 2.674-6.456c1.724-1.725 4.016-2.674 6.454-2.674 2.438 0 4.73.95 6.455 2.674.835.834 2.11.95 3.076.356 1.102-.26 1.924-1.245 1.924-2.427 0-5.033 4.095-9.128 9.128-9.128 5.034 0 9.13 4.095 9.13 9.128 0 1.18.82 2.164 1.92 2.426.964.594 2.24.48 3.076-.356 1.725-1.724 4.018-2.674 6.455-2.674 2.437 0 4.73.95 6.454 2.674 1.725 1.724 2.674 4.016 2.674 6.454s-.95 4.73-2.675 6.456c-.838.838-.952 2.12-.35 3.085.265 1.095 1.245 1.91 2.422 1.91 5.033 0 9.128 4.096 9.128 9.13 0 5.034-4.095 9.13-9.128 9.13z"/><circle cx="56.912" cy="41.737" r="2.69"/><circle cx="42.042" cy="41.694" r="2.69"/>
    </symbol>
</svg>