<?xml version="1.0" encoding="utf-8"?>
<svg version="1.1" id="Layer_1" xmlns="http://www.w3.org/2000/svg" xmlns:xlink="http://www.w3.org/1999/xlink" x="0px" y="0px"
	 viewBox="0 0 100 100" enable-background="new 0 0 100 100" xml:space="preserve">
<g>
	<g>
		<g>
			<path fill="#C1272D" d="M51.1,44.3c-0.4-1.8-0.8-3.4-1.2-5h-0.2c-0.4,1.6-0.7,3.3-1.1,5c-0.4,1.7-0.7,3.4-1.1,4.9l-0.5,2.2h5.6
				l-0.5-2.2C51.8,47.6,51.4,46,51.1,44.3z"/>
			<path fill="#C1272D" d="M70.8,0L29.4,0L0,29.2l-0.1,41.4L29.2,100l41.4,0.1L100,70.8l0.1-41.4L70.8,0z M55.7,64.3l-1.5-6.6h-8.5
				L44,64.3h-8.4L45,33.1h10l9.4,31.2H55.7z"/>
		</g>
	</g>
</g>
</svg>
