<svg xmlns="http://www.w3.org/2000/svg" class="svg-sprite"><symbol id="bike" viewBox="0 0 100 60.214"><path d="M18.054 40.15l6.136-10.84 5.428-23.79.004.003 1.965 2.462-5.053 22.243-6.312 11.147-2.168-1.224z"/><path d="M19.814 17.965c-1.865-.792-4.05-2.646-4.03-5.817-.04-2.895 1.435-4.816 3.068-5.683 1.62-.892 4.108-.983 4.108-.983.256 0 .435.01.51.016l7.773.008.343 2.48H23.33l-.052-.003c0 .002-.092-.013-.318-.013-.603-.005-1.907.106-2.896.67-.973.59-1.753 1.378-1.79 3.508.02 1.498.638 2.298 1.557 2.982.92.66 2.163 1.02 2.987 1.172.55.103.87.12.875.12l-.15 2.485c-.08-.007-1.837-.102-3.728-.942zM26.966 18.61l1.772-1.75 24.445 27.343 25.476-4.1-17.02-24.65H28.68v-2.487h34.266l20.007 28.976-30.643 4.925L26.966 18.61zm1.715-3.157v.002-.002z"/><path d="M51.558 45.17L64.58 2.482l2.382.73L53.94 45.898l-2.382-.728zM0 41.025c0-10.6 8.592-19.19 19.192-19.192 10.6 0 19.188 8.592 19.19 19.192 0 10.596-8.59 19.187-19.19 19.19C8.592 60.21.002 51.62 0 41.024zm2.49 0c.017 9.22 7.48 16.682 16.702 16.7 9.22-.02 16.683-7.48 16.697-16.7-.016-9.225-7.478-16.686-16.698-16.7-9.224.014-16.686 7.475-16.702 16.7z"/><circle cx="19.192" cy="41.025" r="2.697"/><path d="M61.617 41.025c.002-10.6 8.595-19.19 19.192-19.194 10.597.004 19.187 8.597 19.19 19.195-.003 10.596-8.594 19.187-19.19 19.19-10.598-.004-19.19-8.594-19.193-19.19zm2.49 0c.017 9.223 7.48 16.684 16.702 16.7 9.22-.017 16.685-7.478 16.7-16.7-.016-9.226-7.48-16.688-16.7-16.703-9.224.015-16.686 7.477-16.702 16.703z"/><circle cx="80.81" cy="41.025" r="2.697"/><circle cx="52.751" cy="44.707" r="2.698"/><path d="M49.88 36.7l1.833-.348L54.93 53.26l-1.836.348L49.88 36.7z"/><path d="M48.41 37.195v-1.87h4.666v1.87H48.41zM51.522 53.807V51.94h4.666v1.867h-4.666zM59.167 1.14s-1.62.325-1.62 1.295.968 1.188 1.46 1.133c.225-.025 5.823-.163 8.41.485 2.592.647 3.886 1.134 4.695-.16.81-1.296.97-4.046-2.427-3.887-3.4.164-10.518 1.135-10.518 1.135z"/></symbol><symbol id="github" viewBox="0 0 16 16"><path d="M8 .43C3.713.43.24 3.906.24 8.193c0 3.428 2.222 6.337 5.306 7.363.388.07.53-.168.53-.374 0-.183-.007-.67-.01-1.32-2.16.47-2.614-1.04-2.614-1.04-.353-.895-.862-1.134-.862-1.134-.705-.48.053-.472.053-.472.78.055 1.19.8 1.19.8.69 1.186 1.815.843 2.257.645.07-.503.27-.844.493-1.038-1.723-.197-3.534-.862-3.534-3.836 0-.847.3-1.54.798-2.082-.08-.197-.347-.986.076-2.054 0 0 .652-.21 2.134.796.62-.173 1.282-.26 1.942-.262.66.003 1.323.09 1.943.26 1.482-1.003 2.132-.795 2.132-.795.423 1.067.157 1.856.077 2.053.497.542.798 1.235.798 2.082 0 2.98-1.814 3.637-3.543 3.83.28.24.527.712.527 1.436 0 1.038-.01 1.875-.01 2.13 0 .208.14.45.534.373 3.08-1.028 5.302-3.935 5.302-7.362C15.76 3.907 12.285.43 8 .43z"/></symbol><symbol id="pen" viewBox="0 0 100 100"><g id="Captions"><path d="M-192 0H-7v99h-185zM0-36h100v30H0z"/><text transform="translate(66 -19.5)" font-family="'Helvetica'" font-size="2.4">http://thenounproject.com</text><text transform="translate(7.166 -24.5)"><tspan x="0" y="0" font-family="'Helvetica-Bold'" font-size="6.158">The Noun Project</tspan><tspan x="1.12" y="4.8" font-family="'Helvetica-Bold'" font-size="4">Icon Template</tspan></text><text transform="translate(-178.5 10.5)" font-family="'Helvetica-Bold'" font-size="6.158">Reminders</text><path stroke="#FFF" stroke-miterlimit="10" d="M8-14.5h10M-179 16.5h17"/><path d="M-170.802 31.318h8.72v8.642h-8.72z"/><path d="M-164.455 42.312h4.747V37.61h-4.747v4.702zm5.19.437h-5.63v-5.58h5.63v5.58zm-6.956 1.312h8.278V35.86h-8.28v8.202zm8.72.438h-9.163v-9.08h9.163v9.08z"/><path d="M-166.15 44.133l-.142-.142 8.28-8.203.14.142z"/><path fill="none" d="M-179 58h35v32.5h-35z"/><text transform="translate(-179 60.157)"><tspan x="0" y="0" font-family="'Helvetica-Bold'" font-size="3">Strokes</tspan><tspan x="0" y="5" font-family="'Helvetica'" font-size="2.4">Try to keep strokes at 4px</tspan><tspan x="0" y="10" font-family="'Helvetica'" font-size="2.4">Minimum stroke weight is 2px</tspan><tspan x="0" y="14.5" font-family="'Helvetica'" font-size="2.4">For thicker strokes use even </tspan><tspan x="0" y="17.5" font-family="'Helvetica'" font-size="2.4">numbers: 6px, 8px etc.</tspan><tspan x="0" y="22" font-family="'Helvetica-Bold'" font-size="2.4">Remember to expand strokes </tspan><tspan x="0" y="25" font-family="'Helvetica-Bold'" font-size="2.4">before saving as an SVG</tspan></text><path fill="none" d="M-136.5 58h35v32.5h-35z"/><text transform="translate(-136.5 60.157)"><tspan x="0" y="0" font-family="'Helvetica-Bold'" font-size="3">Size</tspan><tspan x="0" y="5" font-family="'Helvetica'" font-size="2.4">Cannot be wider or taller than </tspan><tspan x="0" y="8.5" font-family="'Helvetica'" font-size="2.4">100px (artboar size)</tspan><tspan x="0" y="13.5" font-family="'Helvetica'" font-size="2.4">Scale your icon to fill as much of </tspan><tspan x="0" y="16.5" font-family="'Helvetica'" font-size="2.4">the Safe Area as possible (within </tspan><tspan x="0" y="19.5" font-family="'Helvetica'" font-size="2.4">the guides)</tspan></text><path fill="none" d="M-94 58h35v32.5h-35z"/><text transform="translate(-94 60.157)"><tspan x="0" y="0" font-family="'Helvetica-Bold'" font-size="3">Ungroup</tspan><tspan x="0" y="5" font-family="'Helvetica'" font-size="2.4">If your design has more than one </tspan><tspan x="0" y="8" font-family="'Helvetica'" font-size="2.4">shape, make sure to ungroup.</tspan></text><path fill="none" d="M-50 58h35v32.5h-35z"/><text transform="translate(-50 60.157)"><tspan x="0" y="0" font-family="'Helvetica-Bold'" font-size="3">Save as</tspan><tspan x="0" y="5" font-family="'Helvetica'" font-size="2.4">Save as .SVG and make sure </tspan><tspan x="0" y="8" font-family="'Helvetica'" font-size="2.4">“Use Artboards” is checked.</tspan></text><text transform="matrix(1.0074 0 0 1 -125.542 30.593)" font-family="'Helvetica'" font-size="2.573">100px</text><text transform="matrix(1.0074 0 0 1 -41 39)" font-family="'Helvetica-Bold'" font-size="5.146">.SVG</text><path d="M-126.514 34.815h10.26V45h-10.26zM-126.477 31.766h.522v2.337h-.522zM-116.812 31.766h.523v2.337h-.522z"/><path d="M-127 32.337h11.233v.572H-127zM-83.805 33.844H-73.5V44h-10.305zM-76.81 28.707h3.31v3.26h-3.31z"/><path stroke="#FFF" stroke-miterlimit="10" d="M-178.5 22.5h30v30h-30zM-136.5 22.5h30v30h-30zM-93.5 22.5h30v30h-30zM-49.5 22.5h30v30h-30z"/></g><path d="M80.79 19.21c-3.136-3.14-7.252-4.71-11.367-4.71-4.116 0-8.23 1.57-11.37 4.71L19.21 58.052c-3.058 3.055-4.62 7.035-4.702 11.04-.002-.107-.008-.214-.008-.32V85.5h16.73c-.107 0-.212-.007-.316-.008 4.002-.083 7.98-1.647 11.034-4.7l38.844-38.845c6.278-6.278 6.278-16.46 0-22.738zM35.495 74.336c-1.312 1.312-3.06 2.036-4.914 2.036-1.857 0-3.603-.724-4.915-2.036-2.712-2.71-2.712-7.12-.002-9.83l30.355-30.354 9.832 9.83-30.356 30.354zm38.843-38.844l-5.078 5.08-9.833-9.83 5.08-5.08c1.313-1.312 3.06-2.036 4.916-2.036s3.603.724 4.914 2.037c1.314 1.312 2.04 3.06 2.04 4.914 0 1.858-.726 3.602-2.04 4.915z" id="pen"/></symbol><symbol id="sunflower-face" viewBox="0 0 100 100"><path d="M49.5 24.915c-13.833 0-25.086 11.253-25.086 25.085S35.667 75.085 49.5 75.085 74.583 63.832 74.583 50 63.33 24.915 49.5 24.915zm0 45.17c-11.076 0-20.086-9.01-20.086-20.085 0-11.075 9.01-20.085 20.085-20.085S69.583 38.925 69.583 50c0 11.075-9.01 20.085-20.085 20.085z"/><path d="M61.332 47.5c-1.38 0-2.5 1.12-2.5 2.5 0 5.146-4.187 9.333-9.333 9.333-5.147 0-9.334-4.187-9.334-9.333 0-1.38-1.12-2.5-2.5-2.5s-2.5 1.12-2.5 2.5c0 7.903 6.43 14.333 14.333 14.333 7.903 0 14.332-6.43 14.332-14.333 0-1.38-1.12-2.5-2.5-2.5z"/><path d="M92.763 50c0-6.49-4.404-11.958-10.376-13.607 1.2-2.104 1.85-4.487 1.85-6.974 0-3.775-1.47-7.323-4.138-9.99-2.67-2.67-6.217-4.14-9.99-4.14-2.488 0-4.87.65-6.976 1.85-1.65-5.97-7.117-10.375-13.606-10.375S37.57 11.17 35.92 17.14c-2.103-1.2-4.486-1.85-6.974-1.85-3.774 0-7.322 1.47-9.99 4.138-2.67 2.668-4.14 6.217-4.14 9.99 0 2.488.65 4.87 1.85 6.975C10.697 38.043 6.293 43.51 6.293 50s4.403 11.957 10.375 13.606c-1.2 2.104-1.85 4.487-1.85 6.976 0 3.773 1.47 7.32 4.14 9.99 2.667 2.668 6.215 4.138 9.99 4.14 2.487 0 4.87-.652 6.974-1.853 1.65 5.97 7.118 10.374 13.607 10.374S61.484 88.83 63.133 82.86c2.104 1.2 4.487 1.85 6.976 1.85 3.773 0 7.32-1.47 9.99-4.14 2.668-2.667 4.137-6.215 4.137-9.988 0-2.488-.65-4.87-1.85-6.975C88.36 61.957 92.763 56.49 92.763 50zm-14.128 9.13c-1.18 0-2.163.82-2.426 1.92-.596.963-.48 2.24.354 3.076 1.724 1.725 2.673 4.018 2.673 6.456s-.95 4.73-2.674 6.454c-1.724 1.725-4.016 2.675-6.454 2.675s-4.73-.95-6.455-2.674c-.836-.836-2.113-.95-3.077-.355-1.1.263-1.922 1.246-1.922 2.427 0 5.033-4.095 9.128-9.13 9.128-5.032 0-9.127-4.095-9.127-9.128 0-1.182-.823-2.166-1.925-2.427-.964-.594-2.24-.48-3.075.356-1.724 1.725-4.017 2.675-6.455 2.675-2.438 0-4.73-.95-6.454-2.674-1.723-1.725-2.673-4.017-2.673-6.455 0-2.437.95-4.73 2.674-6.454.836-.835.95-2.11.358-3.074-.262-1.102-1.245-1.923-2.427-1.923-5.032 0-9.127-4.096-9.127-9.13 0-5.034 4.095-9.13 9.128-9.13 1.182 0 2.166-.82 2.427-1.922.594-.963.48-2.24-.356-3.074-1.723-1.724-2.672-4.017-2.672-6.455s.95-4.732 2.674-6.456c1.724-1.725 4.016-2.674 6.454-2.674 2.438 0 4.73.95 6.455 2.674.835.834 2.11.95 3.076.356 1.102-.26 1.924-1.245 1.924-2.427 0-5.033 4.095-9.128 9.128-9.128 5.034 0 9.13 4.095 9.13 9.128 0 1.18.82 2.164 1.92 2.426.964.594 2.24.48 3.076-.356 1.725-1.724 4.018-2.674 6.455-2.674 2.437 0 4.73.95 6.454 2.674 1.725 1.724 2.674 4.016 2.674 6.454s-.95 4.73-2.675 6.456c-.838.838-.952 2.12-.35 3.085.265 1.095 1.245 1.91 2.422 1.91 5.033 0 9.128 4.096 9.128 9.13 0 5.034-4.095 9.13-9.128 9.13z"/><circle cx="56.912" cy="41.737" r="2.69"/><circle cx="42.042" cy="41.694" r="2.69"/></symbol><symbol id="wedding" viewBox="0 0 100 100"><circle cx="35.555" cy="9.281" r="6.781"/><circle cx="56.323" cy="13.84" r="6.487"/><path d="M38.302 17.292l-2.167.64c-.022 0-.044.004-.066.007-.12-.154-.28-.25-.455-.25-.188 0-.357.107-.48.28-.05-.023-.103-.037-.16-.037l-2.168-.64c-.21 0-.38.17-.38.38v1.907c0 .21.17.382.38.382l2.167-.607c.062 0 .12-.016.17-.042.123.166.288.268.47.268.17 0 .323-.09.442-.233.026.005.052.008.08.008l2.167.607c.21 0 .382-.17.382-.382v-1.907c0-.21-.172-.38-.383-.38z"/><circle cx="35.555" cy="22.7" r="1.006"/><circle cx="35.555" cy="26.609" r="1.006"/><circle cx="35.555" cy="30.518" r="1.006"/><circle cx="35.555" cy="34.427" r="1.006"/><path d="M56.323 2.833c-6.39 0-10.055 4.012-10.055 11.007h2.08c0-4.072 1.384-8.927 7.975-8.927 6.592 0 7.976 4.854 7.976 8.927h2.078c0-6.995-3.665-11.007-10.055-11.007zM80.437 92.832L68.033 57.78V22.36H50.455s-.615-3.736-6.51-3.736h-3.778v15.377s-.035 3.537-4.61 3.537-4.612-3.57-4.612-3.57l-.07-15.343h-6.378s-5.062.364-5.062 4.664v32.176s0 2.185 2.964 2.185 3.275-1.634 3.275-1.634v41.238H37.22s1.483.026 1.483-.884c.806.78 3.368 1.885 5.253 0 .962.65 2.704 2.03 5.07 0 0 0 2.756 2.314 5.07 0 1.275.78 2.34 1.846 5.123.156 1.3.676 3.146 1.716 5.07-.078 1.664.884 2.55 1.846 5.07 0 2.055 1.04 3.355 1.716 5.33-.286 1.612 2.052 6.76 2 5.747-3.33zm-53.69-63.39c-1.244 0-2.252-1.008-2.252-2.253s1.01-2.254 2.253-2.254c1.245 0 2.254 1.01 2.254 2.253 0 1.244-1.01 2.253-2.254 2.253zm50.448 66.45c-.95 0-1.724-.74-1.724-1.65 0-.487.225-.924.576-1.226h.005c0-.496-.655-.897-1.464-.897-.81 0-1.466.4-1.466.896h.01c.354.3.576.738.576 1.227 0 .91-.77 1.65-1.723 1.65-.95 0-1.723-.74-1.723-1.65 0-.49.224-.927.577-1.23h-.007c0-.494-.612-.895-1.365-.895-.754 0-1.365.402-1.365.897h.003c.353.3.575.738.575 1.227 0 .91-.772 1.65-1.724 1.65s-1.724-.74-1.724-1.65c0-.49.225-.927.578-1.23h-.028c-.002-.494-.648-.895-1.446-.895s-1.445.4-1.446.896h-.006c.354.3.578.74.578 1.23 0 .91-.772 1.648-1.724 1.648s-1.724-.738-1.724-1.648c0-.488.224-.925.575-1.227h.012c0-.496-.628-.897-1.4-.897-.773 0-1.4.402-1.4.897h.018c.353.3.575.738.575 1.227 0 .91-.772 1.65-1.723 1.65-.952 0-1.724-.74-1.724-1.65 0-.49.224-.927.577-1.23h-.006c-.002-.494-.66-.895-1.468-.895-.812 0-1.467.4-1.47.896h-.02c.354.3.577.74.577 1.23 0 .91-.77 1.648-1.723 1.648-.952 0-1.724-.738-1.724-1.648 0-.49.224-.927.578-1.23h-.017c0-.494-.57-.895-1.273-.895-.702 0-1.27.4-1.273.896h-.02c.354.3.578.74.578 1.23 0 .91-.77 1.648-1.723 1.648s-1.724-.738-1.724-1.648c0-.488.223-.925.575-1.227h.035c0-.496-.69-.897-1.54-.897s-1.542.402-1.542.897h.008c.353.3.576.738.576 1.227 0 .91-.77 1.65-1.723 1.65s-1.723-.74-1.723-1.65c0-.49.224-.927.578-1.23h-.02c-.002-.494-.616-.895-1.373-.895-.758 0-1.373.402-1.373.897h.01c.35.3.574.738.574 1.227 0 .912-.77 1.65-1.724 1.65-.95 0-1.723-.74-1.723-1.65 0-.488 2.145-8.075 2.145-8.075l-.017-26.23s-.104-1.108.97-1.108 1.058.954 1.058.954l.208 18.88 9.882-32.73h4.715c4.682-.088 2.775-6.086 2.775-6.086l-4.94-15.064c-.276-.71.14-.728.14-.728h14.51c.607 0 .59.38.59.38l-.035 28.78-5.496-14.425 2.358-6.05s.485-.71-.365-1.04c-.85-.33-1.16.294-1.16.294l-2.41 6.883 19.363 54.14s.198.74.198 1.23c0 .91-.772 1.65-1.723 1.65z"/></symbol></svg>