<svg xmlns="http://www.w3.org/2000/svg"><symbol id="bike" viewBox="0 0 100 60.214"><path d="M18.054 40.151L24.19 29.31l5.428-23.789.004.002 1.965 2.462-5.053 22.243-6.312 11.147-2.168-1.224z"/><path d="M19.814 17.965c-1.865-.792-4.051-2.646-4.031-5.817-.04-2.895 1.436-4.816 3.069-5.683 1.621-.892 4.108-.983 4.108-.983.256 0 .435.01.51.016l7.773.008.343 2.479h-8.255l-.053-.002c0 .002-.092-.013-.318-.013-.603-.005-1.907.106-2.896.669-.973.591-1.753 1.379-1.791 3.509.021 1.498.639 2.298 1.558 2.982.919.659 2.162 1.019 2.986 1.172.549.103.871.12.875.12l-.151 2.485c-.08-.007-1.836-.102-3.727-.942zM26.966 18.61l1.772-1.749 24.445 27.342 25.476-4.099-17.02-24.651H28.681v-2.487h34.265l20.007 28.976-30.643 4.925L26.966 18.61zm1.715-3.157v.002-.002z"/><path d="M51.558 45.17L64.58 2.482l2.382.73-13.023 42.686-2.381-.728zM0 41.025c.001-10.601 8.592-19.191 19.192-19.192 10.599.001 19.188 8.592 19.191 19.192-.002 10.596-8.592 19.187-19.191 19.189C8.592 60.211.001 51.621 0 41.025zm2.49 0c.017 9.221 7.479 16.682 16.702 16.701 9.221-.02 16.683-7.48 16.697-16.701-.015-9.225-7.477-16.686-16.697-16.701C9.968 24.339 2.506 31.8 2.49 41.025z"/><circle cx="19.192" cy="41.025" r="2.697"/><path d="M61.617 41.025c.002-10.599 8.595-19.191 19.192-19.194 10.598.003 19.188 8.596 19.19 19.194-.002 10.596-8.593 19.187-19.19 19.189-10.597-.003-19.19-8.593-19.192-19.189zm2.491 0c.016 9.223 7.478 16.684 16.701 16.699 9.22-.016 16.686-7.477 16.701-16.699-.016-9.226-7.481-16.688-16.701-16.703-9.223.015-16.685 7.477-16.701 16.703z"/><circle cx="80.81" cy="41.025" r="2.697"/><circle cx="52.751" cy="44.707" r="2.698"/><path d="M49.879 36.701l1.834-.349L54.93 53.26l-1.836.348-3.215-16.907z"/><path d="M48.41 37.195v-1.87h4.666v1.87H48.41zM51.522 53.807V51.94h4.666v1.867h-4.666zM59.167 1.141s-1.619.324-1.619 1.294.967 1.188 1.458 1.133c.226-.025 5.824-.163 8.412.485 2.591.647 3.885 1.134 4.694-.16.809-1.296.971-4.046-2.427-3.887-3.401.164-10.518 1.135-10.518 1.135z"/></symbol><symbol id="github" viewBox="0 0 16 16"><path d="M7.999.431a7.76 7.76 0 0 0-2.453 15.124c.388.071.53-.168.53-.374 0-.184-.007-.672-.01-1.32-2.159.469-2.614-1.04-2.614-1.04-.353-.896-.862-1.135-.862-1.135-.705-.481.053-.472.053-.472.779.055 1.189.8 1.189.8.692 1.186 1.816.843 2.258.645.071-.502.271-.843.493-1.037-1.723-.197-3.534-.862-3.534-3.836 0-.847.302-1.54.799-2.082-.08-.197-.347-.986.076-2.054 0 0 .652-.209 2.134.796A7.39 7.39 0 0 1 8 4.184a7.45 7.45 0 0 1 1.943.261c1.482-1.004 2.132-.796 2.132-.796.423 1.068.157 1.857.077 2.054.497.542.798 1.235.798 2.082 0 2.981-1.814 3.637-3.543 3.829.279.24.527.713.527 1.437 0 1.037-.01 1.874-.01 2.129 0 .208.14.449.534.373A7.762 7.762 0 0 0 7.999.431z"/></symbol><symbol id="pen" viewBox="0 0 100 100"><g id="Captions"><path d="M-192 0H-7v99h-185zM0-36h100v30H0z"/><text transform="translate(66 -19.5)" font-family="'Helvetica'" font-size="2.4">http://thenounproject.com</text><text transform="translate(7.166 -24.5)"><tspan x="0" y="0" font-family="'Helvetica-Bold'" font-size="6.158">The Noun Project</tspan><tspan x="1.12" y="4.8" font-family="'Helvetica-Bold'" font-size="4">Icon Template</tspan></text><text transform="translate(-178.5 10.5)" font-family="'Helvetica-Bold'" font-size="6.158">Reminders</text><path stroke="#FFF" stroke-miterlimit="10" d="M8-14.5h10M-179 16.5h17"/><path d="M-170.802 31.318h8.721v8.642h-8.721z"/><path d="M-164.455 42.312h4.747v-4.703h-4.747v4.703zm5.189.437h-5.63V37.17h5.63v5.579zm-6.955 1.313h8.279v-8.203h-8.279v8.203zm8.721.438h-9.163v-9.079h9.163V44.5z"/><path d="M-166.149 44.133l-.143-.142 8.279-8.204.142.142z"/><path fill="none" d="M-179 58h35v32.5h-35z"/><text transform="translate(-179 60.157)"><tspan x="0" y="0" font-family="'Helvetica-Bold'" font-size="3">Strokes</tspan><tspan x="0" y="5" font-family="'Helvetica'" font-size="2.4">Try to keep strokes at 4px</tspan><tspan x="0" y="10" font-family="'Helvetica'" font-size="2.4">Minimum stroke weight is 2px</tspan><tspan x="0" y="14.5" font-family="'Helvetica'" font-size="2.4">For thicker strokes use even </tspan><tspan x="0" y="17.5" font-family="'Helvetica'" font-size="2.4">numbers: 6px, 8px etc.</tspan><tspan x="0" y="22" font-family="'Helvetica-Bold'" font-size="2.4">Remember to expand strokes </tspan><tspan x="0" y="25" font-family="'Helvetica-Bold'" font-size="2.4">before saving as an SVG</tspan></text><path fill="none" d="M-136.5 58h35v32.5h-35z"/><text transform="translate(-136.5 60.157)"><tspan x="0" y="0" font-family="'Helvetica-Bold'" font-size="3">Size</tspan><tspan x="0" y="5" font-family="'Helvetica'" font-size="2.4">Cannot be wider or taller than </tspan><tspan x="0" y="8.5" font-family="'Helvetica'" font-size="2.4">100px (artboar size)</tspan><tspan x="0" y="13.5" font-family="'Helvetica'" font-size="2.4">Scale your icon to fill as much of </tspan><tspan x="0" y="16.5" font-family="'Helvetica'" font-size="2.4">the Safe Area as possible (within </tspan><tspan x="0" y="19.5" font-family="'Helvetica'" font-size="2.4">the guides)</tspan></text><path fill="none" d="M-94 58h35v32.5h-35z"/><text transform="translate(-94 60.157)"><tspan x="0" y="0" font-family="'Helvetica-Bold'" font-size="3">Ungroup</tspan><tspan x="0" y="5" font-family="'Helvetica'" font-size="2.4">If your design has more than one </tspan><tspan x="0" y="8" font-family="'Helvetica'" font-size="2.4">shape, make sure to ungroup.</tspan></text><path fill="none" d="M-50 58h35v32.5h-35z"/><text transform="translate(-50 60.157)"><tspan x="0" y="0" font-family="'Helvetica-Bold'" font-size="3">Save as</tspan><tspan x="0" y="5" font-family="'Helvetica'" font-size="2.4">Save as .SVG and make sure </tspan><tspan x="0" y="8" font-family="'Helvetica'" font-size="2.4">“Use Artboards” is checked.</tspan></text><text transform="matrix(1.0074 0 0 1 -125.542 30.593)" font-family="'Helvetica'" font-size="2.573">100px</text><text transform="matrix(1.0074 0 0 1 -41 39)" font-family="'Helvetica-Bold'" font-size="5.146">.SVG</text><path d="M-126.514 34.815h10.261V45h-10.261zM-126.477 31.766h.522v2.337h-.522zM-116.812 31.766h.523v2.337h-.523z"/><path d="M-127 32.337h11.233v.572H-127zM-83.805 33.844H-73.5V44h-10.305zM-76.809 28.707h3.308v3.261h-3.308z"/><path stroke="#FFF" stroke-miterlimit="10" d="M-178.5 22.5h30v30h-30zM-136.5 22.5h30v30h-30zM-93.5 22.5h30v30h-30zM-49.5 22.5h30v30h-30z"/></g><path d="M80.791 19.209A16.019 16.019 0 0 0 69.423 14.5a16.024 16.024 0 0 0-11.369 4.709L19.209 58.053a16.009 16.009 0 0 0-4.701 11.04c-.002-.107-.008-.214-.008-.32V85.5h16.729c-.106 0-.211-.007-.315-.008a16.02 16.02 0 0 0 11.034-4.701l38.844-38.844c6.278-6.278 6.278-16.459-.001-22.738zM35.494 74.337a6.908 6.908 0 0 1-4.914 2.036 6.907 6.907 0 0 1-4.915-2.036c-2.712-2.709-2.712-7.119-.002-9.83l30.355-30.354 9.832 9.829-30.356 30.355zm38.843-38.844l-5.078 5.081-9.832-9.831 5.081-5.079c1.312-1.313 3.06-2.037 4.915-2.037s3.603.724 4.914 2.037a6.903 6.903 0 0 1 2.039 4.914 6.902 6.902 0 0 1-2.039 4.915z" id="pen"/></symbol><symbol id="sunflower-face" viewBox="0 0 100 100"><path d="M49.499 24.915c-13.832 0-25.085 11.253-25.085 25.085s11.253 25.085 25.085 25.085c13.833 0 25.085-11.253 25.085-25.085S63.331 24.915 49.499 24.915zm0 45.17c-11.075 0-20.085-9.01-20.085-20.085 0-11.075 9.01-20.085 20.085-20.085S69.584 38.925 69.584 50c0 11.075-9.011 20.085-20.085 20.085z"/><path d="M61.332 47.5a2.5 2.5 0 0 0-2.5 2.5c0 5.146-4.187 9.333-9.333 9.333S40.166 55.146 40.166 50a2.5 2.5 0 1 0-5 0c0 7.903 6.43 14.333 14.333 14.333 7.904 0 14.333-6.43 14.333-14.333a2.5 2.5 0 0 0-2.5-2.5z"/><path d="M92.763 50c0-6.49-4.404-11.958-10.376-13.607a14.05 14.05 0 0 0 1.851-6.974c0-3.774-1.47-7.322-4.139-9.99a14.033 14.033 0 0 0-9.99-4.139c-2.487 0-4.87.65-6.975 1.85-1.649-5.971-7.117-10.375-13.606-10.375S37.571 11.169 35.921 17.14a14.03 14.03 0 0 0-6.975-1.85c-3.774 0-7.322 1.47-9.99 4.138a14.035 14.035 0 0 0-4.139 9.991c0 2.487.65 4.87 1.85 6.974C10.696 38.043 6.292 43.511 6.292 50s4.403 11.957 10.375 13.606a14.03 14.03 0 0 0-1.85 6.976c0 3.773 1.47 7.321 4.139 9.989a14.038 14.038 0 0 0 9.99 4.14 14.02 14.02 0 0 0 6.975-1.852c1.65 5.972 7.117 10.375 13.606 10.375s11.957-4.403 13.606-10.374a14.042 14.042 0 0 0 6.976 1.851c3.774 0 7.322-1.471 9.99-4.14a14.031 14.031 0 0 0 4.138-9.989c0-2.488-.65-4.871-1.85-6.975C88.359 61.957 92.763 56.49 92.763 50zm-14.128 9.129c-1.181 0-2.163.82-2.426 1.92a2.497 2.497 0 0 0 .355 3.077c1.724 1.725 2.673 4.018 2.673 6.456s-.949 4.73-2.674 6.454c-1.724 1.725-4.016 2.675-6.454 2.675s-4.73-.95-6.454-2.675a2.497 2.497 0 0 0-3.077-.355 2.496 2.496 0 0 0-1.922 2.426c0 5.033-4.095 9.128-9.129 9.128-5.033 0-9.128-4.095-9.128-9.128a2.496 2.496 0 0 0-1.924-2.427 2.496 2.496 0 0 0-3.075.356 9.067 9.067 0 0 1-6.455 2.675 9.067 9.067 0 0 1-6.454-2.675 9.072 9.072 0 0 1-2.674-6.455c0-2.438.95-4.73 2.674-6.455.835-.835.95-2.11.357-3.074a2.496 2.496 0 0 0-2.427-1.923c-5.033 0-9.128-4.095-9.128-9.129s4.095-9.129 9.128-9.129a2.495 2.495 0 0 0 2.426-1.923 2.494 2.494 0 0 0-.356-3.074 9.07 9.07 0 0 1-2.673-6.455 9.07 9.07 0 0 1 2.674-6.455 9.064 9.064 0 0 1 6.454-2.674c2.438 0 4.73.949 6.455 2.674.834.834 2.11.949 3.075.356a2.496 2.496 0 0 0 1.924-2.427c0-5.033 4.095-9.128 9.128-9.128 5.034 0 9.129 4.095 9.129 9.128 0 1.181.82 2.164 1.921 2.426.964.595 2.24.48 3.076-.355a9.074 9.074 0 0 1 6.455-2.674c2.438 0 4.73.949 6.455 2.674 1.725 1.724 2.674 4.016 2.674 6.454s-.95 4.731-2.675 6.456a2.496 2.496 0 0 0-.351 3.085 2.496 2.496 0 0 0 2.423 1.912c5.033 0 9.128 4.095 9.128 9.129s-4.095 9.129-9.128 9.129z"/><circle cx="56.912" cy="41.737" r="2.69"/><circle cx="42.042" cy="41.694" r="2.69"/></symbol><symbol id="wedding" viewBox="0 0 100 100"><circle cx="35.555" cy="9.281" r="6.781"/><circle cx="56.323" cy="13.84" r="6.487"/><path d="M38.302 17.292l-2.167.641c-.022 0-.044.003-.066.006-.12-.153-.278-.249-.454-.249-.188 0-.357.107-.479.28a.385.385 0 0 0-.162-.037l-2.167-.641a.382.382 0 0 0-.381.381v1.907c0 .211.171.382.381.382l2.167-.607c.062 0 .12-.016.171-.042.122.166.287.268.47.268.169 0 .322-.09.441-.234a.417.417 0 0 0 .08.008l2.167.607a.382.382 0 0 0 .382-.382v-1.907a.383.383 0 0 0-.383-.381z"/><circle cx="35.555" cy="22.7" r="1.006"/><circle cx="35.555" cy="26.609" r="1.006"/><circle cx="35.555" cy="30.518" r="1.006"/><circle cx="35.555" cy="34.427" r="1.006"/><path d="M56.323 2.833c-6.39 0-10.055 4.012-10.055 11.007h2.081c0-4.072 1.383-8.927 7.974-8.927 6.592 0 7.976 4.854 7.976 8.927h2.079c-.001-6.995-3.665-11.007-10.055-11.007zM80.437 92.832L68.033 57.779V22.362H50.455s-.615-3.736-6.509-3.736h-3.779v15.377s-.035 3.537-4.611 3.537-4.611-3.571-4.611-3.571l-.069-15.342h-6.379s-5.062.364-5.062 4.664v32.175s0 2.185 2.964 2.185c2.965 0 3.276-1.635 3.276-1.635v41.238h11.546s1.482.026 1.482-.884c.806.78 3.368 1.885 5.253 0 .962.65 2.704 2.029 5.07 0 0 0 2.756 2.314 5.071 0 1.274.78 2.34 1.846 5.122.156 1.301.676 3.147 1.716 5.071-.078 1.664.884 2.549 1.846 5.071 0 2.054 1.041 3.354 1.716 5.33-.286 1.611 2.052 6.76 2 5.746-3.33zM26.748 29.443a2.253 2.253 0 1 1 0-4.506 2.253 2.253 0 0 1 0 4.506zm50.447 66.449c-.951 0-1.724-.739-1.724-1.649 0-.488.224-.925.575-1.227h.005c0-.496-.656-.897-1.465-.897-.81 0-1.466.402-1.466.897h.011c.353.301.575.738.575 1.227 0 .911-.771 1.649-1.723 1.649-.951 0-1.723-.739-1.723-1.649 0-.489.224-.927.577-1.229h-.007c-.001-.495-.612-.896-1.365-.896-.754 0-1.365.402-1.365.897h.003c.353.301.575.738.575 1.227 0 .911-.772 1.649-1.724 1.649s-1.724-.739-1.724-1.649c0-.489.225-.927.578-1.229h-.028c-.002-.495-.648-.896-1.446-.896s-1.445.401-1.446.896h-.006c.354.301.578.739.578 1.229 0 .911-.772 1.649-1.724 1.649s-1.724-.739-1.724-1.649c0-.488.224-.925.575-1.227h.012c0-.496-.627-.897-1.4-.897-.772 0-1.399.402-1.399.897h.018c.353.301.575.738.575 1.227 0 .911-.772 1.649-1.723 1.649-.952 0-1.724-.739-1.724-1.649 0-.489.224-.927.577-1.229h-.006c-.002-.495-.659-.896-1.468-.896-.811 0-1.466.401-1.468.896h-.021c.354.301.577.739.577 1.229 0 .911-.771 1.649-1.723 1.649-.952 0-1.724-.739-1.724-1.649 0-.489.224-.927.578-1.229h-.017c-.001-.495-.572-.896-1.274-.896-.702 0-1.271.401-1.273.896h-.02c.354.301.578.739.578 1.229 0 .911-.771 1.649-1.723 1.649s-1.723-.739-1.723-1.649c0-.488.223-.925.575-1.227h.034c0-.496-.69-.897-1.541-.897s-1.541.402-1.541.897h.008c.352.301.575.738.575 1.227 0 .911-.771 1.649-1.723 1.649s-1.723-.739-1.723-1.649c0-.489.224-.927.578-1.229h-.02c-.002-.495-.616-.896-1.373-.896-.758 0-1.373.402-1.373.897h.009c.352.301.575.738.575 1.227 0 .911-.771 1.649-1.724 1.649-.951 0-1.723-.739-1.723-1.649 0-.489 2.146-8.076 2.146-8.076l-.017-26.229s-.104-1.109.971-1.109 1.057.954 1.057.954l.208 18.878 9.882-32.73h4.715c4.681-.087 2.774-6.085 2.774-6.085L51.226 24.78c-.277-.71.139-.728.139-.728h14.511c.606 0 .589.381.589.381l-.035 28.778-5.496-14.424 2.358-6.05s.485-.71-.365-1.04c-.849-.33-1.161.294-1.161.294l-2.409 6.882 19.363 54.14s.198.739.198 1.229c0 .911-.772 1.65-1.723 1.65z"/></symbol></svg>